<svg version="1.1" xmlns="http://www.w3.org/2000/svg" xmlns:xlink="http://www.w3.org/1999/xlink" viewBox="0 0 172 172"><g fill="none" fill-rule="nonzero" stroke="none" stroke-width="1" stroke-linecap="butt" stroke-linejoin="miter" stroke-miterlimit="10" stroke-dasharray="" stroke-dashoffset="0" font-family="none" font-weight="none" font-size="none" text-anchor="none" style="mix-blend-mode: normal"><path d="M0,172v-172h172v172z" fill="none"></path><g fill="#e74c3c"><path d="M86,6.88c-43.63156,0 -79.12,35.48844 -79.12,79.12c0,43.63156 35.48844,79.12 79.12,79.12c43.63156,0 79.12,-35.48844 79.12,-79.12c0,-43.63156 -35.48844,-79.12 -79.12,-79.12zM127.28,96.32c0,2.06938 -1.37062,3.44 -3.44,3.44h-75.68c-2.06937,0 -3.44,-1.37062 -3.44,-3.44v-20.64c0,-2.06937 1.37063,-3.44 3.44,-3.44h75.68c2.06938,0 3.44,1.37063 3.44,3.44z"></path></g></g></svg>